<?xml version="1.0" encoding="UTF-8"?>
<svg xmlns="http://www.w3.org/2000/svg" xmlns:xlink="http://www.w3.org/1999/xlink" width="746.8pt" height="135.1pt" viewBox="0 0 746.8 135.1" version="1.1">
<defs>
<clipPath id="clip1">
  <path d="M 492 52 L 746.800781 52 L 746.800781 125 L 492 125 Z M 492 52 "/>
</clipPath>
</defs>
<g id="surface1">
<path style=" stroke:none;fill-rule:evenodd;fill:rgb(13.719177%,12.156677%,12.547302%);fill-opacity:1;" d="M 0.0429688 27.714844 C 0.0429688 27.714844 0.824219 22.898438 7.855469 19.644531 C 14.886719 16.390625 21.523438 20.425781 27.773438 22.25 C 34.023438 24.070313 39.101563 26.285156 39.101563 26.285156 L 33.761719 28.628906 C 33.761719 28.628906 36.628906 32.273438 37.539063 52.324219 C 38.449219 72.371094 37.539063 81.875 36.496094 99.0625 C 35.457031 116.246094 35.457031 118.457031 40.535156 119.238281 C 45.609375 120.023438 57.328125 107.003906 57.328125 107.003906 L 55.960938 106.613281 C 55.960938 106.613281 54.855469 109.214844 51.597656 108.824219 C 48.34375 108.433594 46.066406 106.675781 46.976563 96.390625 C 47.890625 86.105469 48.929688 57.335938 49.0625 46.660156 C 49.191406 35.984375 47.433594 28.429688 47.433594 28.429688 C 47.433594 28.429688 59.347656 32.988281 69.890625 27.910156 C 80.4375 22.832031 80.308594 13.589844 80.308594 13.589844 C 80.308594 13.589844 77.183594 20.621094 63.644531 21.011719 C 50.101563 21.402344 31.8125 9.359375 19.769531 9.03125 C 7.726563 8.707031 0.761719 21.269531 0.761719 21.269531 Z M 0.0429688 27.714844 "/>
<path style=" stroke:none;fill-rule:evenodd;fill:rgb(13.719177%,12.156677%,12.547302%);fill-opacity:1;" d="M 129.425781 117.964844 C 133.722656 116.144531 135.804688 112.367188 135.804688 112.367188 C 135.804688 112.367188 141.402344 120.441406 147.785156 120.960938 C 154.164063 121.480469 161.453125 114.839844 161.453125 114.839844 L 160.671875 104.164063 C 160.671875 104.164063 157.027344 109.894531 150.90625 110.023438 C 144.789063 110.15625 142.835938 106.378906 142.835938 106.378906 C 142.835938 106.378906 152.339844 97.527344 155.335938 84.507813 C 158.328125 71.488281 155.074219 61.984375 143.226563 62.113281 C 131.378906 62.246094 127.214844 76.566406 127.605469 87.632813 C 127.996094 98.699219 130.730469 105.597656 130.730469 105.597656 C 130.730469 105.597656 128.96875 106.964844 126.628906 107.941406 C 125.195313 108.5625 123.390625 108.992188 121.636719 109.03125 C 118.527344 109.097656 115.578125 107.925781 115.167969 104.363281 C 114.648438 99.871094 116.730469 78.714844 115.425781 70.121094 C 114.125 61.53125 105.664063 59.316406 101.367188 65.175781 C 97.070313 71.035156 88.347656 88.347656 88.347656 88.347656 L 87.957031 70.511719 C 87.957031 70.511719 97.851563 61.917969 103.449219 42 C 109.046875 22.082031 101.757813 13.878906 94.078125 12.839844 C 86.394531 11.796875 78.191406 25.074219 77.933594 42.390625 C 77.671875 59.707031 77.671875 67.386719 77.671875 67.386719 C 77.671875 67.386719 74.546875 72.984375 67.515625 76.761719 C 60.488281 80.539063 55.148438 79.824219 55.148438 79.824219 C 55.148438 79.824219 58.144531 81.972656 59.835938 84.640625 C 61.527344 87.308594 62.179688 89.71875 62.179688 89.71875 C 62.179688 89.71875 66.472656 88.351563 70.121094 85.617188 C 73.765625 82.882813 77.214844 80.605469 77.214844 80.605469 C 77.214844 80.605469 77.800781 97.203125 77.28125 103.972656 C 76.761719 110.742188 74.546875 115.300781 74.546875 115.300781 L 83.269531 120.117188 C 83.269531 120.117188 84.179688 110.089844 92.253906 92.125 C 100.324219 74.160156 105.664063 71.554688 106.054688 81.1875 C 106.445313 90.824219 103.839844 106.183594 107.09375 112.957031 C 109.257813 117.453125 113.15625 119.496094 117.464844 119.972656 C 121.453125 120.410156 125.792969 119.507813 129.425781 117.964844 Z M 138.476563 96.746094 C 138.476563 96.746094 131.269531 72.617188 143.03125 70.445313 C 154.796875 68.273438 142.511719 95.183594 138.476563 96.746094 Z M 87.175781 56.320313 C 87.175781 56.320313 85.484375 23.644531 93.816406 22.210938 C 102.148438 20.78125 91.992188 54.757813 87.175781 56.320313 Z M 87.175781 56.320313 "/>
<path style=" stroke:none;fill-rule:evenodd;fill:rgb(13.719177%,12.156677%,12.547302%);fill-opacity:1;" d="M 252.652344 124.867188 C 252.652344 124.867188 248.617188 127.078125 244.320313 124.996094 C 240.023438 122.914063 237.417969 122 233.382813 118.097656 C 229.347656 114.191406 222.449219 109.113281 222.449219 109.113281 C 222.449219 109.113281 228.628906 101.757813 227.851563 84.050781 C 227.070313 66.34375 228.5 35.488281 228.890625 31.191406 C 229.28125 26.898438 237.484375 22.859375 243.210938 27.289063 C 248.941406 31.714844 247.507813 35.488281 249.980469 35.621094 C 252.457031 35.75 258.183594 31.582031 258.316406 27.675781 C 258.445313 23.773438 252.457031 15.699219 239.828125 17.003906 C 227.199219 18.304688 219.257813 24.683594 217.433594 40.957031 C 215.613281 57.230469 216.261719 69.597656 216.785156 84.3125 C 217.304688 99.023438 215.742188 103.320313 215.742188 103.320313 C 211.796875 102.152344 205.609375 100.261719 199.140625 100.828125 C 190.886719 101.554688 182.78125 105.710938 184.886719 114.320313 C 185.601563 117.25 189.769531 123.300781 200.378906 123.300781 C 210.988281 123.300781 216.261719 117.25 216.261719 117.25 C 216.261719 117.25 230.582031 131.699219 236.832031 133.390625 C 243.082031 135.085938 249.199219 129.746094 252.652344 124.867188 Z M 209.167969 112.171875 C 206.761719 107.171875 194.402344 108.101563 195.617188 112.355469 C 196.78125 116.429688 207.441406 114.628906 209.167969 112.171875 Z M 209.167969 112.171875 "/>
<path style=" stroke:none;fill-rule:evenodd;fill:rgb(13.719177%,12.156677%,12.547302%);fill-opacity:1;" d="M 260.851563 65.757813 C 260.851563 65.757813 261.242188 63.933594 257.726563 63.542969 C 254.210938 63.152344 251.609375 64.453125 251.609375 66.40625 C 251.609375 68.359375 250.695313 83.722656 250.695313 84.375 C 250.695313 85.027344 245.226563 92.707031 241.714844 94.789063 C 238.199219 96.871094 232.46875 96.871094 233.25 98.175781 C 234.03125 99.476563 237.417969 103.902344 240.933594 103.382813 C 244.445313 102.863281 249.523438 97.523438 249.523438 97.523438 C 249.523438 97.523438 246.789063 122.128906 261.632813 121.609375 C 276.472656 121.089844 282.855469 100.777344 282.855469 100.777344 C 282.855469 100.777344 283.636719 115.621094 291.1875 118.746094 C 298.738281 121.867188 306.289063 121.347656 311.625 116.140625 C 316.964844 110.933594 319.046875 107.027344 319.046875 107.027344 C 319.046875 107.027344 322.820313 122.78125 337.402344 122.648438 C 351.984375 122.519531 356.800781 109.761719 356.800781 109.761719 C 356.800781 109.761719 361.226563 120.046875 373.074219 121.21875 C 384.921875 122.390625 391.5625 112.496094 391.5625 112.496094 C 391.5625 112.496094 398.074219 120.046875 404.714844 121.347656 C 411.351563 122.648438 413.175781 118.742188 413.175781 118.742188 L 420.695313 107.320313 L 419.75 106.734375 C 419.75 106.734375 415.390625 111.84375 410.441406 112.007813 C 405.496094 112.167969 400.15625 107.09375 400.15625 107.09375 C 400.15625 107.09375 408.816406 99.148438 411.679688 88.734375 C 414.542969 78.320313 412.851563 65.039063 401.261719 63.867188 C 389.675781 62.695313 385.378906 83.136719 385.378906 90.167969 C 385.378906 97.199219 387.464844 105.789063 387.464844 105.789063 C 387.464844 105.789063 384.597656 111.128906 375.484375 110.605469 C 366.371094 110.085938 365.394531 98.5625 365.394531 98.5625 C 365.394531 98.5625 378.085938 80.792969 383.296875 49.546875 C 388.503906 18.300781 370.277344 11.53125 361.164063 19.601563 C 352.050781 27.671875 352.308594 53.191406 351.007813 69.074219 C 349.707031 84.957031 353.089844 98.757813 353.089844 98.757813 C 353.089844 98.757813 347.625 109.171875 337.339844 110.605469 C 327.054688 112.039063 328.160156 97.195313 328.160156 97.195313 L 329.398438 67.511719 C 329.398438 67.511719 336.558594 67.773438 337.988281 67.25 C 339.421875 66.730469 344.105469 62.5 344.628906 61.980469 C 345.148438 61.457031 345.539063 60.808594 340.789063 60.871094 C 336.035156 60.9375 330.113281 61.003906 330.113281 61.003906 C 330.113281 61.003906 330.828125 37.4375 329.527344 33.273438 C 328.222656 29.105469 325.230469 32.359375 323.148438 35.09375 C 321.0625 37.828125 320.023438 38.21875 319.109375 45.511719 C 318.199219 52.800781 318.199219 59.960938 318.199219 59.960938 L 295.414063 59.832031 C 295.414063 59.832031 295.9375 42.386719 294.765625 40.300781 C 293.59375 38.21875 289.425781 39.910156 287.734375 42.125 C 286.042969 44.339844 285 47.59375 284.609375 52.539063 C 284.21875 57.488281 284.347656 60.871094 284.347656 60.871094 C 284.347656 60.871094 276.570313 60.839844 274.714844 62.664063 C 272.859375 64.484375 270.710938 68.8125 271.625 69.398438 C 272.535156 69.984375 283.566406 69.464844 283.566406 69.464844 C 283.566406 69.464844 284.476563 79 283.046875 85.640625 C 281.613281 92.28125 277.449219 104.191406 272.628906 107.644531 C 267.8125 111.09375 262.734375 113.5 260.71875 107.316406 C 258.699219 101.132813 261.109375 84.339844 260.851563 65.757813 Z M 395.296875 96.832031 C 395.296875 96.832031 392.355469 73.976563 400.894531 73.269531 C 409.433594 72.558594 398.8125 97.355469 395.296875 96.832031 Z M 362.226563 87.070313 C 362.226563 87.070313 360.664063 62.332031 362.359375 46.710938 C 364.050781 31.085938 367.046875 21.324219 373.292969 29.523438 C 379.542969 37.726563 369.648438 80.039063 362.226563 87.070313 Z M 294.5625 67.996094 L 318.257813 67.476563 L 318.324219 94.554688 C 318.324219 94.554688 312.527344 109.722656 303.285156 110.375 C 294.042969 111.023438 292.542969 105.570313 292.738281 96.703125 C 293.796875 81.753906 294.5625 67.996094 294.5625 67.996094 Z M 252.1875 47.878906 C 252.1875 47.878906 250.363281 53.867188 256.613281 54.78125 C 262.863281 55.691406 263.902344 51.003906 264.035156 48.140625 C 264.164063 45.277344 262.472656 42.800781 258.957031 42.410156 C 255.441406 42.023438 252.578125 44.234375 252.1875 47.878906 Z M 252.1875 47.878906 "/>
<path style=" stroke:none;fill-rule:evenodd;fill:rgb(13.719177%,12.156677%,12.547302%);fill-opacity:1;" d="M 450.988281 108.546875 C 450.988281 108.546875 451.898438 121.957031 467.523438 122.738281 C 483.144531 123.519531 482.496094 97.613281 481.84375 87.195313 C 481.191406 76.78125 482.105469 54.390625 484.578125 46.445313 C 487.050781 38.503906 497.464844 38.246094 497.464844 38.246094 L 487.960938 30.042969 C 487.960938 30.042969 475.855469 33.167969 473.382813 47.617188 C 470.90625 62.070313 471.039063 82.769531 471.429688 94.746094 C 471.820313 106.726563 471.167969 111.164063 464.660156 112.203125 C 458.148438 113.246094 450.988281 108.546875 450.988281 108.546875 Z M 462.3125 48.921875 C 462.3125 48.921875 460.882813 38.375 471.6875 29.261719 C 482.496094 20.148438 498.117188 20.800781 504.234375 31.085938 C 510.355469 41.371094 505.40625 56.601563 497.207031 58.945313 C 489.003906 61.289063 487.3125 57.121094 487.3125 57.121094 C 487.3125 57.121094 490.046875 66.625 491.476563 68.839844 C 492.910156 71.054688 500.589844 73.917969 507.492188 65.976563 C 514.390625 58.035156 520.121094 40.199219 511.007813 24.707031 C 501.894531 9.210938 474.292969 13.378906 465.699219 18.976563 C 457.105469 24.574219 453.851563 30.171875 455.414063 37.074219 C 456.976563 43.972656 462.3125 48.921875 462.3125 48.921875 Z M 462.3125 48.921875 "/>
<g clip-path="url(#clip1)" clip-rule="nonzero">
<path style=" stroke:none;fill-rule:evenodd;fill:rgb(13.719177%,12.156677%,12.547302%);fill-opacity:1;" d="M 492.128906 117.921875 C 492.128906 117.921875 494.992188 124.953125 507.230469 121.828125 C 519.46875 118.703125 526.628906 74.566406 526.628906 74.566406 C 526.628906 74.566406 528.320313 75.609375 534.960938 76.128906 C 541.601563 76.652344 544.140625 75.285156 544.007813 76.78125 C 543.878906 78.277344 542.835938 77.367188 539.128906 81.273438 C 535.417969 85.179688 527.996094 92.207031 529.6875 107.441406 C 531.378906 122.671875 544.007813 124.625 551.691406 118.898438 C 559.371094 113.167969 564.578125 102.882813 566.140625 103.40625 C 567.703125 103.925781 562.757813 115.644531 570.828125 120.851563 C 578.898438 126.058594 587.363281 123.976563 593.871094 110.042969 C 600.382813 96.113281 605.070313 76.585938 610.015625 76.585938 C 614.964844 76.585938 613.789063 81.921875 613.660156 89.214844 C 613.53125 96.503906 610.667969 118.117188 612.621094 121.371094 C 614.574219 124.625 619.683594 126.222656 622.027344 122.449219 C 624.371094 118.671875 621.210938 97.027344 626.550781 87.523438 C 631.886719 78.019531 643.214844 73.589844 643.734375 80.75 C 644.257813 87.914063 637.09375 106.789063 640.21875 115.902344 C 643.34375 125.015625 654.023438 127.488281 659.878906 121.371094 C 665.738281 115.253906 666.519531 108.222656 668.210938 108.613281 C 669.902344 109.003906 666.910156 121.890625 686.308594 124.234375 C 705.707031 126.578125 714.039063 113.820313 715.859375 114.992188 C 717.683594 116.164063 721.980469 124.886719 731.222656 124.886719 C 740.46875 124.886719 742.941406 120.847656 742.941406 120.847656 L 746.847656 107.960938 L 746 107.601563 C 746 107.601563 740.953125 114.925781 733.535156 114.339844 C 726.113281 113.753906 723.507813 107.699219 723.507813 107.699219 C 723.507813 107.699219 730.019531 102.621094 735.355469 86.480469 C 740.695313 70.335938 731.320313 62.003906 720.644531 67.210938 C 709.96875 72.417969 708.144531 84.265625 708.144531 91.296875 C 708.144531 98.324219 710.75 105.746094 710.75 105.746094 C 710.75 105.746094 702.546875 117.335938 688.355469 115.511719 C 674.164063 113.6875 674.554688 81.792969 683.796875 76.585938 C 693.042969 71.375 699.941406 86.738281 699.941406 86.738281 L 705.539063 77.234375 C 705.539063 77.234375 706.191406 67.339844 688.613281 65.777344 C 671.039063 64.214844 666.871094 86.609375 666.613281 91.035156 C 666.351563 95.460938 665.570313 101.449219 663.226563 104.574219 C 660.882813 107.699219 657.109375 114.339844 651.902344 113.167969 C 646.691406 111.996094 649.296875 100.800781 651.640625 88.820313 C 653.984375 76.84375 652.941406 68.511719 643.699219 66.039063 C 634.457031 63.566406 625.210938 80.488281 623.257813 81.011719 C 621.304688 81.53125 625.992188 70.855469 615.578125 66.691406 C 605.160156 62.523438 599.433594 72.9375 595.007813 80.621094 C 590.578125 88.300781 587.195313 111.476563 580.945313 111.214844 C 574.695313 110.953125 575.21875 95.332031 577.429688 82.183594 C 579.644531 69.035156 579.253906 66.167969 576.386719 65.257813 C 573.523438 64.347656 568.1875 66.300781 568.707031 68.511719 C 569.226563 70.726563 567.40625 88.824219 560.375 97.15625 C 553.34375 105.488281 547.09375 114.859375 542.019531 108.480469 C 536.941406 102.101563 542.539063 88.042969 546.445313 83.484375 C 550.351563 78.925781 553.996094 76.453125 555.558594 74.761719 C 557.121094 73.070313 556.601563 65.777344 552.433594 65.777344 C 548.265625 65.777344 541.496094 66.949219 535.25 66.691406 C 529 66.429688 528.085938 64.996094 528.085938 64.996094 C 528.085938 64.996094 529.648438 47.160156 519.753906 54.972656 C 512.066406 61.042969 519.753906 67.992188 519.753906 67.992188 C 519.753906 67.992188 518.453125 98.066406 509.597656 106.265625 C 500.746094 114.46875 499.054688 105.226563 499.054688 105.226563 C 499.054688 105.226563 494.105469 107.570313 492.128906 117.921875 Z M 719.597656 97.414063 C 719.597656 97.414063 715.300781 75.800781 724.542969 74.5 C 733.789063 73.199219 722.722656 96.371094 719.597656 97.414063 Z M 719.597656 97.414063 "/>
</g>
<path style=" stroke:none;fill-rule:evenodd;fill:rgb(100%,94.921875%,0%);fill-opacity:1;" d="M 564.082031 26.769531 L 570.222656 36.480469 L 575.691406 24.894531 L 592.160156 19.945313 L 580.929688 13.226563 L 588.382813 2.304688 L 571.589844 6.863281 L 557.984375 -0.0390625 L 561.890625 13.761719 L 554.011719 30.230469 Z M 564.082031 26.769531 "/>
<path style=" stroke:none;fill-rule:evenodd;fill:rgb(13.719177%,12.156677%,12.547302%);fill-opacity:1;" d="M 567.183594 24.734375 L 571.304688 35.167969 L 576.628906 25.730469 L 576.707031 25.597656 L 576.847656 25.550781 L 589.878906 21.246094 L 579.75 14.53125 L 579.351563 14.269531 L 579.683594 13.929688 L 586.621094 6.878906 L 572.773438 10.550781 L 572.617188 10.589844 L 572.476563 10.507813 L 562.640625 4.75 L 566.28125 17.613281 L 566.335938 17.800781 L 566.21875 17.953125 L 557.769531 29.296875 L 566.628906 24.535156 L 567.019531 24.324219 Z M 570.875 36.222656 L 566.613281 25.4375 L 556.585938 30.824219 L 555.03125 31.660156 L 556.085938 30.246094 L 565.472656 17.640625 L 561.621094 4.027344 L 561.355469 3.089844 L 562.195313 3.582031 L 572.730469 9.746094 L 587.808594 5.753906 L 589.191406 5.386719 L 588.1875 6.410156 L 580.578125 14.140625 L 590.988281 21.039063 L 591.664063 21.484375 L 590.894531 21.738281 L 577.234375 26.25 L 571.582031 36.269531 L 571.179688 36.988281 Z M 570.875 36.222656 "/>
</g>
</svg>
